<?xml version="1.0" encoding="utf-8"?>
<!-- Generator: Adobe Illustrator 24.1.2, SVG Export Plug-In . SVG Version: 6.00 Build 0)  -->
<svg version="1.1" id="Laag_1" xmlns="http://www.w3.org/2000/svg" xmlns:xlink="http://www.w3.org/1999/xlink" x="0px" y="0px"
	 viewBox="0 0 66 66" style="enable-background:new 0 0 66 66;" xml:space="preserve">
<path fill="#feb633" d="M66,36.75v-1.62h-1.11c-0.13-0.3-0.51-1.23-0.79-1.98c-0.24-0.64-0.69-0.8-1.02-0.74c-0.32,0.06-0.55,0.32-0.55,0.62l0,0.05
	c-0.17,0.06-0.56,0.21-0.77,0.5c-0.13,0.17-0.67,0.87-1.1,1.41l-0.35-1.18c0.14-0.15,0.25-0.31,0.3-0.49
	c0.07-0.24,0.03-0.49-0.1-0.69c-0.41-0.65-1.12-0.54-1.16-0.54l-1.09,0.21l-0.12-0.26l-3.67-0.43l0.01-0.07l-12.36-1.49v-1.08
	l-2.91,0.03v0.54l-6.8-1.48l-0.47-0.4l0.32-4.16l1.62-1.48H21.16v1.61h0.91V33.7h-0.63v-3.75l0-0.19c0.01-0.38,0.02-0.81-0.29-1.13
	c-0.28-0.29-0.75-0.42-1.49-0.42l-3.23,0v-3.84h-1.61v3.84H9.44l-4.39,0.72v5.27l-0.93-1.48l-0.76-0.24v-0.06l-0.13-0.06
	c-0.06-0.03-0.58-0.27-0.98-0.04C2.09,32.4,1.9,32.59,1.85,33c-0.08,0.7-0.55,1.79-0.72,2.16H0v3.25l2.9,1.2l-0.57-1.2l-1.17-0.7
	l-0.02-0.78h1.41l-0.04,0.04l2.08,1.85c0.08,0.38,0.29,0.73,0.92,0.73h1l0,0.04c0,2.59,2.11,4.71,4.71,4.71
	c1.89,0,3.51-1.13,4.26-2.74h2.62c0.75,1.61,2.37,2.74,4.26,2.74c2.59,0,4.7-2.11,4.7-4.71c0-0.36-0.05-0.71-0.13-1.04
	c0.39-0.19,3.1-1.5,4.69-2.21c1.36-0.61,2.84-2.07,3.49-2.75v0.06h0.73V34h0.65v0.64h1.14v2.91h0.75c-0.21,0.15-0.53,0.3-0.74,0.38
	l0.05,0.14h-1.2l-0.1,0.02c-0.05,0.02-1.17,0.56-1.06,2.95c0.07,1.49,1.29,2.03,2.1,2.03c0.15,0,0.29-0.02,0.41-0.06l0,0.06
	l1.1,0.34l0.61,0.83h0.82l0.89,0l-0.78-0.44c-0.01,0-0.66-0.38-1.05-1.67c-0.39-1.29-0.02-2.09-0.02-2.09l0.13-0.25l-0.07-0.02
	c0.43-0.05,0.93-0.1,1.51-0.15c3.4-0.29,4.53-0.45,4.58-0.46l0.19-0.03l0.05-0.97l6.76-0.28v-0.27h1.06
	c-0.29,0.61-0.46,1.28-0.46,1.99c0,2.59,2.11,4.71,4.71,4.71c2.59,0,4.71-2.11,4.71-4.71c0-0.55-0.11-1.07-0.29-1.56l0.74-0.67v0.83
	l2.86,1.22l-0.41-1.09l-1.16-0.63v-0.95H66z M54.31,36.47h-1.76V36.2l-13.58,0.29l-0.04,0.12v-1.97h0.27v-1.8l15.12,1.56V36.47z"/>
</svg>
