<?xml version="1.0" encoding="utf-8"?>
<!-- Generator: Adobe Illustrator 23.0.4, SVG Export Plug-In . SVG Version: 6.00 Build 0)  -->
<svg version="1.1" id="Laag_1" xmlns="http://www.w3.org/2000/svg" xmlns:xlink="http://www.w3.org/1999/xlink" x="0px" y="0px"
	 viewBox="0 0 20.9 20.9" style="enable-background:new 0 0 20.9 20.9;" xml:space="preserve">
<style type="text/css">
	.st0{fill:#FFFFFF;}
	.st1{fill:none;stroke:#FFFFFF;stroke-width:0.8742;stroke-miterlimit:10;}
</style>
<g>
	<g>
		<g>
			<path class="st0" d="M15.6,14.7c0,0.2-0.1,0.3-0.2,0.4l-1.8,1.3c-0.1,0.1-0.2,0.1-0.3,0.2c-0.1,0-0.2,0.1-0.4,0c0,0,0,0-0.1,0
				c0,0-0.1,0-0.2,0c-0.1,0-0.4-0.1-0.7-0.2c-0.3-0.1-0.7-0.3-1.2-0.6c-0.4-0.3-0.9-0.7-1.5-1.2c-0.5-0.5-1.1-1.2-1.7-2
				c-0.5-0.6-0.8-1.2-1.1-1.8C6.2,10.3,6,9.8,5.8,9.3C5.7,8.9,5.6,8.5,5.5,8.1C5.5,7.7,5.5,7.4,5.5,7.2s0-0.5,0.1-0.6s0-0.2,0.1-0.2
				c0-0.1,0.1-0.2,0.2-0.3C5.8,5.9,5.9,5.8,6,5.8l1.8-1.3c0.1-0.1,0.3-0.1,0.4-0.1c0.1,0,0.2,0.1,0.3,0.1c0.1,0.1,0.1,0.2,0.2,0.3
				l0.8,2.6c0,0.1,0,0.3,0,0.4S9.3,8.1,9.2,8.2L8.5,8.6c0,0,0,0-0.1,0.1c0,0,0,0.1,0,0.1c0,0.2,0,0.4,0.1,0.6
				c0.1,0.2,0.2,0.5,0.3,0.8c0.1,0.3,0.4,0.7,0.7,1.1c0.3,0.4,0.6,0.8,0.8,1c0.2,0.2,0.4,0.4,0.6,0.6c0.2,0.1,0.3,0.2,0.4,0.2
				l0.1,0.1c0,0,0,0,0.1,0c0,0,0.1,0,0.1,0l0.8-0.6c0.2-0.1,0.3-0.1,0.5-0.1c0.1,0,0.2,0.1,0.3,0.1l0,0l2,1.7
				C15.5,14.4,15.6,14.5,15.6,14.7z"/>
		</g>
	</g>
	<circle class="st1" cx="10.4" cy="10.4" r="10"/>
</g>
</svg>
